<?xml version="1.0" encoding="UTF-8"?>
<svg version="1.1" xmlns="http://www.w3.org/2000/svg" width="612" height="612">
<path d="M0 0 C201.96 0 403.92 0 612 0 C612 201.96 612 403.92 612 612 C410.04 612 208.08 612 0 612 C0 410.04 0 208.08 0 0 Z " fill="#FEFEFE" transform="translate(0,0)"/>
<path d="M0 0 C4.33231215 3.19643584 7.27774364 6.38287476 10.3125 10.875 C10.68930908 11.4316333 11.06611816 11.9882666 11.4543457 12.56176758 C15.54060743 18.67295951 19.29073492 24.98798735 23.01269531 31.32519531 C24.34346224 33.58262883 25.70349615 35.82198013 27.0625 38.0625 C28.04380058 39.70706192 29.02279675 41.35300014 30 43 C30.63808594 44.06605469 31.27617187 45.13210937 31.93359375 46.23046875 C40.86470652 61.34433283 47.70998355 76.02528921 46 94 C44.97220254 97.82519402 43.64572138 101.39998448 42 105 C45.3 105 48.6 105 52 105 C49.88488209 109.23023583 48.6269517 110.27432993 44.875 112.9375 C33.36495476 121.28771543 22.47312343 130.38689583 12 140 C6.99276827 144.45891916 1.89802883 148.81840065 -3.1875 153.1875 C-3.78208008 153.69901611 -4.37666016 154.21053223 -4.98925781 154.73754883 C-7.57982438 156.95870903 -10.17382158 159.13587962 -12.86328125 161.23828125 C-15.08113071 162.82425171 -15.08113071 162.82425171 -16 165 C-14.7625 165.04125 -13.525 165.0825 -12.25 165.125 C0.87676574 166.6499304 10.96726523 175.77442093 18.95092773 185.66137695 C33.8958692 205.15652653 42.68833743 229.63483644 51.2878418 252.41088867 C53.53055419 258.34137107 55.85186071 264.08144607 58.8125 269.6875 C61.73981698 275.38043455 64.44106451 281.1324974 67 287 C69.81788954 293.44541458 72.81117508 299.76269875 76.00219727 306.03125 C78.06987275 310.10310423 80.04043674 314.20630943 81.94970703 318.35473633 C85.88515292 326.90163773 90.28892633 335.07366105 94.98779297 343.22216797 C96.43708986 345.76770101 97.81043076 348.35234913 99.1875 350.9375 C106.68301645 364.67241614 115.05388931 374.20886397 129.94140625 380.1796875 C137.05053675 382.08635085 146.39486747 382.38797766 153.20703125 379.20703125 C162.08462703 373.23061056 168.13949411 362.24074483 170.4765625 351.88916016 C171.05009922 348.57835844 171.41004514 345.29752099 171.7109375 341.94921875 C172 339 172 339 173 337 C175.45439784 337.36456537 176.65820269 337.55208914 178.1953125 339.56640625 C182.34880964 348.48420893 185.14280198 357.80890764 181.80078125 367.46484375 C177.23817845 376.42179718 168.02678166 383.18711144 160 389 C159.36143066 389.46664063 158.72286133 389.93328125 158.06494141 390.4140625 C148.47573707 397.42097716 138.80975378 404.30502206 129 411 C127.76277075 411.86552805 126.52580215 412.73142876 125.2890625 413.59765625 C109.71534936 424.39529868 94.15776117 429.86359544 75 428 C58.67296975 425.00671112 42.5838838 415.83795467 33 402 C32.1875 399.3203125 32.1875 399.3203125 32 397 C33 396 34 395 35 394 C34.62511165 389.60287208 32.72094917 386.43755504 30.5 382.6875 C29.76255374 381.42475183 29.02559166 380.16172081 28.2890625 378.8984375 C27.90782227 378.2497168 27.52658203 377.60099609 27.13378906 376.93261719 C18.52410459 362.25685012 10.73249101 347.15120969 3 332 C2.44304443 330.91017822 1.88608887 329.82035645 1.31225586 328.69750977 C0.78124268 327.64877686 0.25022949 326.60004395 -0.296875 325.51953125 C-0.76834961 324.58987549 -1.23982422 323.66021973 -1.72558594 322.70239258 C-3.41701085 319.1157293 -4.71585294 315.43892483 -6.01171875 311.6953125 C-7.0039943 308.98910644 -8.14892729 306.42033718 -9.375 303.8125 C-11.34605037 299.58628389 -12.99304231 295.32829952 -14.5625 290.9375 C-22.61642469 268.82047656 -32.93026851 244.32006573 -48 226 C-49.07894531 224.67742187 -49.07894531 224.67742187 -50.1796875 223.328125 C-54.61492039 218.1408976 -59.47988284 212.47522966 -66 210 C-67.55147286 209.93429765 -69.10548824 209.91846323 -70.65820312 209.93994141 C-71.47067505 209.94861237 -72.28314697 209.95728333 -73.12023926 209.96621704 C-73.7405603 209.97736542 -74.36088135 209.98851379 -75 210 C-75.0700939 225.95083266 -75.12298999 241.90161534 -75.15543652 257.85256481 C-75.17090272 265.25893999 -75.19198743 272.66521946 -75.22631836 280.0715332 C-75.25622838 286.5271908 -75.2755768 292.98277908 -75.28226548 299.43850404 C-75.28617506 302.85650706 -75.29535772 306.27431177 -75.31719017 309.69225121 C-75.33891346 313.50874042 -75.34196898 317.3248165 -75.34057617 321.14135742 C-75.351362 322.27352188 -75.36214783 323.40568634 -75.3732605 324.57215881 C-75.36707451 326.13488022 -75.36707451 326.13488022 -75.36076355 327.72917175 C-75.36352893 328.63160708 -75.36629431 329.53404242 -75.36914349 330.46382427 C-74.92153752 333.53907123 -73.68601185 335.41941775 -72 338 C-71.6015625 340.0625 -71.6015625 340.0625 -71.625 342 C-71.61726562 342.639375 -71.60953125 343.27875 -71.6015625 343.9375 C-72.72894785 349.7733771 -76.99420158 352.97760127 -81.375 356.5 C-85.46344289 359.83236099 -89.31454313 363.21216933 -93 367 C-93.80179688 367.79019531 -94.60359375 368.58039063 -95.4296875 369.39453125 C-99.75692627 373.67338236 -104.00722947 377.96107428 -107.9375 382.609375 C-109.67190907 384.61971278 -111.44515052 386.56925891 -113.25 388.515625 C-114.43768464 389.82274892 -115.62518274 391.13004236 -116.8125 392.4375 C-117.38846924 393.0461792 -117.96443848 393.6548584 -118.55786133 394.28198242 C-122.68187973 398.88098029 -124.21051193 402.88825825 -125 409 C-126.32 409 -127.64 409 -129 409 C-131.24478896 406.69107421 -132.82260628 405.03479669 -133.375 401.8125 C-133.58125 401.214375 -133.7875 400.61625 -134 400 C-136.66500695 398.83169965 -136.66500695 398.83169965 -140 398 C-141.94855166 397.27108974 -143.8968349 396.54143491 -145.8425293 395.80493164 C-170.63892148 386.55363538 -197.02381158 381.65216473 -223 377 C-223.70463379 376.86722656 -224.40926758 376.73445313 -225.13525391 376.59765625 C-232.80001713 375.15962953 -240.40639776 374.75948495 -248.1875 374.625 C-249.57159058 374.58572388 -249.57159058 374.58572388 -250.98364258 374.5456543 C-255.98777586 374.3716938 -255.98777586 374.3716938 -260.04296875 376.890625 C-260.35878906 377.58671875 -260.67460937 378.2828125 -261 379 C-261.37125 379.70125 -261.7425 380.4025 -262.125 381.125 C-263.20531083 384.67459272 -263.48275477 388.10198834 -263.75390625 391.79296875 C-264 394 -264 394 -265 396 C-268.67889913 395.78977719 -269.97774115 395.02023532 -272.75 392.5 C-275.62859773 388.6649353 -276.66126814 384.76280471 -276 380 C-272.70059292 373.35833639 -264.829119 368.26431625 -259 364 C-258.01 363.67 -257.02 363.34 -256 363 C-256 362.34 -256 361.68 -256 361 C-254.44759659 359.60674046 -252.82970015 358.28619872 -251.1875 357 C-247.16052706 353.78254658 -243.28942988 350.49961778 -239.5 347 C-234.16914473 342.10709035 -228.6581697 337.50813521 -223 333 C-222.22221191 332.36481445 -222.22221191 332.36481445 -221.42871094 331.71679688 C-208.82211013 321.42229062 -196.91145085 315.58966958 -180.4375 315.75 C-179.63892578 315.74226563 -178.84035156 315.73453125 -178.01757812 315.7265625 C-177.22673828 315.72914063 -176.43589844 315.73171875 -175.62109375 315.734375 C-174.9242749 315.73663086 -174.22745605 315.73888672 -173.50952148 315.74121094 C-169.9007129 316.11336164 -166.5145603 317.10029266 -163 318 C-163.10866672 303.23642106 -163.22163941 288.47287934 -163.33933926 273.70936966 C-163.39393179 266.84987944 -163.44724393 259.99038421 -163.49731445 253.13085938 C-163.78427631 213.96240523 -164.21665169 174.86696913 -166.375 135.75 C-166.43936249 134.56193756 -166.50372498 133.37387512 -166.57003784 132.14981079 C-167.35226782 117.81052535 -168.21289513 103.48580152 -169.5625 89.1875 C-169.73434814 87.3607373 -169.73434814 87.3607373 -169.90966797 85.49707031 C-170.52813665 79.40361855 -171.38521128 73.43253 -172.61303711 67.4309082 C-173.01372595 64.91377335 -173.06614395 62.54441297 -173 60 C-173.69867188 59.79503906 -174.39734375 59.59007812 -175.1171875 59.37890625 C-176.02726562 59.10949219 -176.93734375 58.84007812 -177.875 58.5625 C-178.77992188 58.29566406 -179.68484375 58.02882812 -180.6171875 57.75390625 C-183 57 -183 57 -185 56 C-196.71705081 54.61843729 -205.17102768 58.01680885 -214.375 65.125 C-219.7565772 70.13582136 -224.53178682 78.72507907 -225.18994141 86.13989258 C-225.28428842 92.43158067 -224.3092588 97.72008064 -222.375 103.6875 C-222.10284668 104.5547168 -221.83069336 105.42193359 -221.55029297 106.31542969 C-217.23336816 119.81608331 -211.50890492 132.44031 -205 145 C-204.52159668 145.93070313 -204.04319336 146.86140625 -203.55029297 147.8203125 C-201.97601486 150.88281016 -200.39545768 153.94198043 -198.8125 157 C-198.31347168 157.96744141 -197.81444336 158.93488281 -197.30029297 159.93164062 C-194.70998896 164.90378386 -192.0295654 169.70403234 -188.89550781 174.35595703 C-188 176 -188 176 -187.9375 178.875 C-189 181 -189 181 -190.98046875 181.72265625 C-193.31120622 182.8846116 -193.31120622 182.8846116 -193.8359375 185.87890625 C-194.10277344 187.70228516 -194.10277344 187.70228516 -194.375 189.5625 C-198.4955815 213.78419901 -211.73316346 238.8772726 -232.0390625 253.46484375 C-239.19964093 257.74595553 -246.84283309 257.80897523 -255 257 C-258.375 255.125 -258.375 255.125 -260 252 C-260.36629595 248.62079092 -260.2955154 245.3820096 -260 242 C-256.48071536 242.64060711 -254.09431419 244.10608271 -251.125 246.0625 C-248.07872308 247.9198765 -246.09314869 248.98137026 -242.5625 249.6875 C-239.83805185 249.2344792 -239.83805185 249.2344792 -238.36328125 246.875 C-234.98131946 239.74283989 -236.27342612 230.02624198 -238.84765625 222.71875 C-244.97573408 208.26064094 -253.24830165 195.04590869 -261.41796875 181.68017578 C-273.81220668 161.3264577 -283.03547356 141.84126557 -277.15625 117.5078125 C-266.72474615 85.86088527 -231.22632974 67.08117199 -205 50.1875 C-193.71093968 42.91105229 -182.82886768 35.16898076 -172.0390625 27.17724609 C-165.45581967 22.3101591 -158.820787 17.53052275 -152 13 C-151.23558594 12.43539062 -150.47117188 11.87078125 -149.68359375 11.2890625 C-145.90771269 9.4753205 -142.57749813 9.50789519 -138.4375 9.5625 C-137.23758423 9.57385986 -137.23758423 9.57385986 -136.01342773 9.58544922 C-129.12250817 9.77534281 -123.29102758 11.11922988 -117 14 C-116.04480469 14.42410156 -115.08960938 14.84820312 -114.10546875 15.28515625 C-103.32061638 20.58168429 -97.96628238 28.13727323 -93.03125 38.88671875 C-91.21628499 44.36598813 -91.21628499 44.36598813 -92 48 C-93.28701461 49.02378584 -94.6136275 49.99837929 -95.9609375 50.94140625 C-98.77715241 53.23773323 -99.86423295 54.4133676 -100.69238281 57.99169922 C-100.87220003 61.98573743 -100.74796843 65.94460518 -100.625 69.9375 C-100.58295736 71.47921819 -100.54146841 73.02095157 -100.50048828 74.56269836 C-100.21566552 84.9549475 -99.89249647 95.34529204 -99.53662109 105.73535156 C-98.57765322 134.0157315 -97.81534372 162.28759433 -97.4375 190.58203125 C-97.41816214 192.01027879 -97.39881782 193.43852624 -97.37946701 194.86677361 C-97.21506792 207.07866436 -97.06422712 219.29071984 -96.92171955 231.50288457 C-96.83668479 238.7841477 -96.74614129 246.06529436 -96.64490223 253.3463518 C-96.5979163 256.7520365 -96.55470006 260.15767531 -96.52072144 263.56351662 C-96.48220402 267.28966843 -96.4319272 271.0154857 -96.37890625 274.74145508 C-96.37053741 275.84571838 -96.36216858 276.94998169 -96.35354614 278.08770752 C-96.33685883 279.0931813 -96.32017151 280.09865509 -96.30297852 281.13459778 C-96.29267105 282.00737271 -96.28236359 282.88014765 -96.27174377 283.77937031 C-96.13383658 286.28623259 -96.13383658 286.28623259 -94 289 C-93.875 291.6875 -93.875 291.6875 -94 294 C-95.11375 294.3403125 -96.2275 294.680625 -97.375 295.03125 C-115.59708815 300.7525592 -132.87064854 309.19452121 -148 321 C-137.50773896 324.65559514 -126.89714169 327.83896486 -116.23779297 330.96875 C-106.44861 333.84896829 -96.71722892 336.88727926 -87 340 C-86.94593994 338.88004639 -86.89187988 337.76009277 -86.83618164 336.60620117 C-86.40503814 327.93319815 -85.89575419 319.27275995 -85.24609375 310.61328125 C-83.66659629 289.14581811 -82.6543164 267.7161841 -82.52420044 246.18710327 C-82.50813939 243.69861227 -82.48386127 241.21015999 -82.45114136 238.72183228 C-82.40958231 235.2294328 -82.40253666 231.73870393 -82.40625 228.24609375 C-82.38184593 226.69137863 -82.38184593 226.69137863 -82.35694885 225.10525513 C-82.42105971 218.34847018 -83.63319759 215.15615312 -88 210 C-89.04217811 205.65302023 -88.44110073 201.98245163 -86.625 197.9375 C-86.08875 197.298125 -85.5525 196.65875 -85 196 C-84.34 196 -83.68 196 -83 196 C-83.06638672 195.2186821 -83.13277344 194.4373642 -83.20117188 193.63237 C-83.85733033 185.57456011 -84.25456204 177.53685581 -84.5 169.45703125 C-84.54060547 168.20854904 -84.58121094 166.96006683 -84.62304688 165.67375183 C-84.75141526 161.72008285 -84.87607279 157.76631049 -85 153.8125 C-83.02178738 121.1288281 -83.02178738 121.1288281 -90.5078125 91.27734375 C-91.00023437 90.85582031 -91.49265625 90.43429688 -92 90 C-93.89321463 86.21357075 -93.6139724 82.11479578 -93 78 C-91.44389586 74.6154735 -89.35156964 71.87414068 -87 69 C-86.48179687 68.33226562 -85.96359375 67.66453125 -85.4296875 66.9765625 C-79.37889317 59.58114721 -71.65865577 54.01536747 -64.09887695 48.2644043 C-63.27649536 47.63852417 -63.27649536 47.63852417 -62.4375 47 C-61.61608521 46.37508667 -61.61608521 46.37508667 -60.77807617 45.73754883 C-55.5996964 41.76207881 -50.80249226 37.41895989 -46 33 C-44.73303062 31.89140179 -43.46233444 30.7870447 -42.1875 29.6875 C-38.55807461 26.52923734 -35.02776317 23.27061415 -31.5 20 C-27.33357858 16.13797467 -23.14672759 12.31256503 -18.84765625 8.59765625 C-17.49360229 7.42681467 -16.14847964 6.24562279 -14.80859375 5.05859375 C-14.08800781 4.42050781 -13.36742187 3.78242187 -12.625 3.125 C-11.65433594 2.26261719 -11.65433594 2.26261719 -10.6640625 1.3828125 C-7.0060047 -1.65698201 -4.54945422 -1.06153932 0 0 Z " fill="#030303" transform="translate(373,92)"/>
<path d="M0 0 C0.99 0.495 0.99 0.495 2 1 C1.835 1.598125 1.67 2.19625 1.5 2.8125 C0.8885876 5.11344336 0.8885876 5.11344336 1 8 C-0.79296875 9.39453125 -0.79296875 9.39453125 -3.1875 10.8125 C-11.47109311 16.11451813 -15.92823919 23.78471757 -19 33 C-19.62185604 40.00587173 -18.52678465 46.04898741 -16.375 52.6875 C-16.10284668 53.5547168 -15.83069336 54.42193359 -15.55029297 55.31542969 C-11.23336816 68.81608331 -5.50890492 81.44031 1 94 C1.47840332 94.93070312 1.95680664 95.86140625 2.44970703 96.8203125 C4.02398514 99.88281016 5.60454232 102.94198043 7.1875 106 C7.68652832 106.96744141 8.18555664 107.93488281 8.69970703 108.93164062 C11.29001104 113.90378386 13.9704346 118.70403234 17.10449219 123.35595703 C18 125 18 125 18.0625 127.875 C17 130 17 130 15.01953125 130.72265625 C12.68879378 131.8846116 12.68879378 131.8846116 12.1640625 134.87890625 C11.89722656 136.70228516 11.89722656 136.70228516 11.625 138.5625 C7.5044185 162.78419901 -5.73316346 187.8772726 -26.0390625 202.46484375 C-33.19964093 206.74595553 -40.84283309 206.80897523 -49 206 C-52.375 204.125 -52.375 204.125 -54 201 C-54.36629595 197.62079092 -54.2955154 194.3820096 -54 191 C-50.48071536 191.64060711 -48.09431419 193.10608271 -45.125 195.0625 C-42.07872308 196.9198765 -40.09314869 197.98137026 -36.5625 198.6875 C-33.83805185 198.2344792 -33.83805185 198.2344792 -32.36328125 195.875 C-28.98131946 188.74283989 -30.27342612 179.02624198 -32.84765625 171.71875 C-38.97573408 157.26064094 -47.24830165 144.04590869 -55.41796875 130.68017578 C-67.81220668 110.3264577 -77.03547356 90.84126557 -71.15625 66.5078125 C-61.76359639 38.01253228 -31.722537 20.42277107 -8 5 C-7.2260791 4.4838916 -6.4521582 3.9677832 -5.65478516 3.43603516 C-4.93983887 2.96858887 -4.22489258 2.50114258 -3.48828125 2.01953125 C-2.86091064 1.60421143 -2.23354004 1.1888916 -1.5871582 0.76098633 C-1.063396 0.50986084 -0.53963379 0.25873535 0 0 Z " fill="#030303" transform="translate(167,143)"/>
<path d="M0 0 C8.87648217 6.82806321 14.27066613 18.61803701 19.8762207 28.13476562 C21.03328228 30.0552415 22.24294102 31.93547123 23.45703125 33.8203125 C32.9990981 49.03097034 42.55802019 67.67743677 40 86 C38.58337676 90.16968349 36.59426154 93.45793936 34 97 C33.39285156 97.86367187 32.78570312 98.72734375 32.16015625 99.6171875 C27.34903209 105.69342493 22.33605322 108.57043528 15.45019531 111.67382812 C6.01642428 116.10756882 -2.14282804 123.28971068 -9.57714844 130.53759766 C-12.43207453 133.2198696 -13.69369322 133.98922141 -17.68408203 134.12963867 C-18.77833496 134.08685791 -19.87258789 134.04407715 -21 134 C-22.49028797 106.24735006 -23.25605395 78.51384898 -23.36334229 50.72413635 C-23.3749811 48.44120702 -23.39438895 46.15846528 -23.41601562 43.87561035 C-23.44936596 40.24329409 -23.46179558 36.61147591 -23.4583931 32.97901344 C-23.46086319 30.99333185 -23.48225941 29.00770195 -23.50424194 27.0221405 C-23.46843611 19.92145117 -23.02730792 14.95442167 -19 9 C-18.01 8.67 -17.02 8.34 -16 8 C-16 7.34 -16 6.68 -16 6 C-11.38228666 2.47739655 -5.97190763 -1.5276973 0 0 Z " fill="#FCFCFC" transform="translate(318,151)"/>
<path d="M0 0 C0.66 0.33 1.32 0.66 2 1 C-4.66666667 7.66666667 -11.33333333 14.33333333 -18 21 C-18.66 20.67 -19.32 20.34 -20 20 C-13.33333333 13.33333333 -6.66666667 6.66666667 0 0 Z " fill="#D7D7D7" transform="translate(289,449)"/>
<path d="M0 0 C3.63 0.33 7.26 0.66 11 1 C8.80682128 5.38635744 7.08649371 6.51256905 3 9 C2.61781233 7.34385343 2.28604898 5.67542976 2 4 C2.33 3.67 2.66 3.34 3 3 C2.01 2.67 1.02 2.34 0 2 C0 1.34 0 0.68 0 0 Z " fill="#222222" transform="translate(414,196)"/>
<path d="M0 0 C1.0625 1.8125 1.0625 1.8125 2 4 C1.67 4.99 1.34 5.98 1 7 C-0.72626985 7.74913597 -2.45586386 8.49295762 -4.2109375 9.171875 C-6.66766575 10.30905052 -8.24858768 11.96836171 -10 14 C-10 11 -10 11 -8.57421875 9.31640625 C-7.95160156 8.73761719 -7.32898438 8.15882813 -6.6875 7.5625 C-4.18913888 5.17540192 -1.95209832 2.87073283 0 0 Z " fill="#ECECEC" transform="translate(157,328)"/>
<path d="M0 0 C0.66 0.33 1.32 0.66 2 1 C0.7934375 2.11375 0.7934375 2.11375 -0.4375 3.25 C-2.76988591 5.75304829 -3.63534394 6.7180955 -4 10 C-5.65 10 -7.3 10 -9 10 C-7.61811547 6.78956118 -6.07578097 4.95063635 -3.375 2.75 C-2.74335938 2.22921875 -2.11171875 1.7084375 -1.4609375 1.171875 C-0.73777344 0.59179688 -0.73777344 0.59179688 0 0 Z " fill="#D7D7D7" transform="translate(366,247)"/>
<path d="M0 0 C0.66 0.33 1.32 0.66 2 1 C0.38405168 3.04119788 -1.2856382 5.04072937 -3 7 C-3.66 7 -4.32 7 -5 7 C-5.33 7.99 -5.66 8.98 -6 10 C-8.5625 11.6875 -8.5625 11.6875 -11 13 C-11 10 -11 10 -8.59375 7.51953125 C-7.56994769 6.60874608 -6.53832966 5.70668808 -5.5 4.8125 C-4.97535156 4.34908203 -4.45070313 3.88566406 -3.91015625 3.40820312 C-2.61333776 2.264645 -1.30750133 1.13132826 0 0 Z " fill="#1F1F1F" transform="translate(327,125)"/>
<path d="M0 0 C0.66 0.33 1.32 0.66 2 1 C1.54625 1.4125 1.0925 1.825 0.625 2.25 C-1.05950374 4.06408095 -1.99265971 5.75285627 -3 8 C-3.66 8 -4.32 8 -5 8 C-6.62514468 9.45833358 -6.62514468 9.45833358 -8 11 C-8.99 10.67 -9.98 10.34 -11 10 C-5.555 5.05 -5.555 5.05 0 0 Z " fill="#DBDBDB" transform="translate(398,219)"/>
<path d="M0 0 C0.66 0.33 1.32 0.66 2 1 C0.16172132 4.15133488 -1.75972706 7.11964908 -4 10 C-6 9 -6 9 -7 6 C-4.69 4.02 -2.38 2.04 0 0 Z " fill="#1B1B1B" transform="translate(145,429)"/>
<path d="M0 0 C1.5 1.1875 1.5 1.1875 3 3 C3.1875 5.6875 3.1875 5.6875 3 8 C2.34 8 1.68 8 1 8 C0.67 6.68 0.34 5.36 0 4 C-0.66 4 -1.32 4 -2 4 C-1.34 2.68 -0.68 1.36 0 0 Z " fill="#101010" transform="translate(276,378)"/>
<path d="M0 0 C1.98 0.495 1.98 0.495 4 1 C3.54625 1.5775 3.0925 2.155 2.625 2.75 C1.15886484 4.7800333 0.05142216 6.73539843 -1 9 C-1.125 2.25 -1.125 2.25 0 0 Z " fill="#434343" transform="translate(546,429)"/>
<path d="M0 0 C-0.598125 0.268125 -1.19625 0.53625 -1.8125 0.8125 C-3.97224808 1.98493467 -5.35790256 3.19369282 -7 5 C-7.99 4.01 -8.98 3.02 -10 2 C-6.5980513 -0.09350689 -3.94727588 -0.17942163 0 0 Z " fill="#C8C8C8" transform="translate(318,151)"/>
<path d="M0 0 C0.99 0.33 1.98 0.66 3 1 C2.34 1 1.68 1 1 1 C1 1.66 1 2.32 1 3 C0.34 3 -0.32 3 -1 3 C-1.33 3.99 -1.66 4.98 -2 6 C-3.32 5.67 -4.64 5.34 -6 5 C-1.60546875 0.99609375 -1.60546875 0.99609375 0 0 Z " fill="#E4E4E4" transform="translate(299,441)"/>
<path d="M0 0 C0 4.38968456 -2.12805101 5.76905739 -5 9 C-5.66 8.34 -6.32 7.68 -7 7 C-4.69 4.69 -2.38 2.38 0 0 Z " fill="#252525" transform="translate(337,116)"/>
<path d="M0 0 C0.66 0.33 1.32 0.66 2 1 C0.02 3.31 -1.96 5.62 -4 8 C-4.99 7.34 -5.98 6.68 -7 6 C-4.69 4.02 -2.38 2.04 0 0 Z " fill="#252525" transform="translate(131,441)"/>
</svg>
